# xmcd
#
# Track frame offsets:
#	182
#	39942
#	49417
#	73172
#	102780
#	119132
#	137862
#	155340
#	175782
#
# Disc length: 2627 seconds
#
# Revision: 3
# Processed by: cddbd v1.4PL0 Copyright (c) Steve Scherf et al.
# Submitted via: OrangeCD 4.1
#
DISCID=7f0a4109
DTITLE=Led Zeppelin - Physical Graphitti
DYEAR=1900
DGENRE=
TTITLE0=In The Light
TTITLE1=Bron-Yr-Aur
TTITLE2=Down By The Seaside
TTITLE3=Ten Years Gone
TTITLE4=Night Flight
TTITLE5=The Wanton Song
TTITLE6=Boogie With Stu
TTITLE7=Black Country Woman
TTITLE8=Sick Again
EXTD=
EXTT0=
EXTT1=
EXTT2=
EXTT3=
EXTT4=
EXTT5=
EXTT6=
EXTT7=
EXTT8=
PLAYORDER=
